<svg xmlns="http://www.w3.org/2000/svg" width="500" height="500" viewBox="0 0 500 500">
<g>
<path d="M 81.50 438.51 C80.95,438.33 77.91,437.40 74.75,436.45 C77.91,437.40 80.95,438.33 81.50,438.51 C82.05,438.70 157.72,438.77 249.65,438.68 C407.29,438.51 416.90,438.40 418.72,436.75 C420.83,434.85 422.49,434.40 421.50,436.00 C421.16,436.55 421.89,437.00 423.13,437.00 C425.32,437.00 425.33,436.96 423.44,435.58 C421.88,434.44 415.83,434.14 392.50,434.05 C376.55,433.98 358.33,433.55 352.00,433.09 C345.67,432.63 318.00,432.47 290.50,432.73 C263.00,433.00 235.77,433.07 230.00,432.88 C218.01,432.50 215.85,432.52 184.50,433.29 C171.85,433.60 143.50,433.91 121.51,433.98 C83.65,434.11 81.43,434.02 80.01,432.26 C79.35,431.45 77.22,429.96 74.85,428.61 L 80.50 431.50 L 178.50 432.00 C291.58,432.58 401.80,432.35 417.00,431.51 C426.74,430.98 427.82,430.70 431.94,427.77 C434.39,426.02 437.64,423.22 439.18,421.55 C441.54,418.97 443.89,414.98 445.02,412.00 C444.66,413.09 444.17,414.31 443.59,415.49 C441.82,419.11 441.47,420.68 442.33,421.22 C443.20,421.78 443.18,421.97 442.25,421.98 C441.56,421.99 441.00,422.75 441.00,423.67 C441.00,424.58 440.70,425.04 440.34,424.68 C439.98,424.31 439.13,424.48 438.44,425.05 C437.76,425.61 436.37,426.24 435.35,426.43 C434.33,426.63 431.55,428.06 429.17,429.62 C424.88,432.43 424.86,432.47 426.92,434.14 C429.09,435.90 432.13,435.95 435.23,434.34 C434.45,434.81 433.64,435.27 432.79,435.71 L 427.50 438.50 L 255.00 438.68 C160.12,438.78 82.05,438.70 81.50,438.51 ZM 129.02 211.12 L 125.50 209.21 L 125.23 190.60 C125.02,176.07 125.23,172.00 126.23,172.01 C126.93,172.01 132.36,175.16 138.31,179.01 C138.90,179.39 139.48,179.76 140.04,180.13 C137.48,178.64 135.57,178.00 134.20,178.14 C131.19,178.46 128.68,177.32 129.50,176.00 C129.79,175.53 129.62,174.88 129.11,174.57 C128.58,174.24 128.35,175.82 128.57,178.25 C128.78,180.59 128.21,184.91 127.31,187.84 C125.99,192.15 125.89,193.81 126.82,196.38 C127.45,198.13 127.92,201.99 127.85,204.95 C127.79,207.74 128.17,209.79 129.02,211.12 ZM 299.51 317.27 C300.61,317.54 318.60,317.80 339.50,317.85 C378.50,317.93 380.99,317.70 381.84,314.00 C383.06,308.68 383.07,305.78 381.87,303.08 L 380.51 300.00 L 383.00 300.00 L 383.00 318.00 L 294.00 318.00 L 294.00 300.00 L 338.50 300.00 C300.78,300.00 297.89,300.13 297.29,301.75 C296.94,302.71 296.24,303.77 295.75,304.11 C295.25,304.44 294.62,306.46 294.33,308.61 C293.76,312.87 295.84,316.33 299.51,317.27 ZM 125.44 345.71 C125.17,345.01 125.07,336.62 125.23,327.08 L 125.50 309.73 L 135.41 303.74 C125.89,309.83 125.74,312.45 126.28,328.50 C126.65,339.32 126.99,341.52 128.50,342.62 C130.30,343.94 133.16,343.17 134.50,340.99 C134.84,340.45 135.87,340.00 136.80,340.00 C137.99,340.00 141.32,338.20 154.66,330.08 C151.98,331.73 148.63,333.78 144.30,336.44 C134.84,342.25 126.83,347.00 126.52,347.00 C126.20,347.00 125.72,346.42 125.44,345.71 ZM 452.50 393.41 L 452.50 413.50 L 449.10 419.77 C445.97,425.53 442.23,429.74 437.00,433.22 C439.51,431.24 442.24,427.12 439.90,428.56 C439.19,429.00 439.63,427.93 440.87,426.18 C443.04,423.13 444.94,421.65 443.35,424.25 C442.89,425.01 443.55,424.88 445.04,423.92 C448.24,421.86 453.01,412.92 451.25,412.29 C449.50,411.65 449.69,406.17 451.52,404.34 C451.98,403.88 452.30,401.58 452.50,393.41 ZM 431.91 76.91 C433.26,77.33 434.34,77.73 435.00,78.06 C438.36,79.76 442.40,83.53 445.69,87.79 C441.62,86.91 441.21,87.36 441.67,91.33 C441.93,93.56 442.65,96.31 443.28,97.44 C443.68,98.16 444.07,98.94 444.32,99.51 C443.84,98.51 442.86,96.72 441.77,94.86 C439.55,91.07 437.98,89.37 432.48,84.96 C434.29,85.61 437.44,86.27 440.29,86.50 C444.06,86.80 443.35,85.33 437.39,80.46 C435.28,78.73 433.82,77.69 431.91,76.91 ZM 155.98 189.89 C161.88,193.51 171.25,199.29 181.69,205.79 C191.38,211.82 201.17,217.90 208.70,222.58 C198.91,216.62 189.07,211.00 187.91,211.00 C186.82,211.00 184.13,209.23 181.95,207.07 C177.99,203.14 167.65,197.48 166.15,198.40 C165.72,198.67 164.75,198.04 164.00,197.00 C163.25,195.96 162.26,195.34 161.79,195.63 C161.33,195.91 161.07,195.59 161.23,194.91 C161.36,194.33 158.77,192.01 155.98,189.89 ZM 53.79 96.64 C54.32,94.81 54.92,93.11 55.41,92.17 C57.17,88.78 63.16,82.00 65.65,80.36 C65.21,80.92 65.00,82.14 65.00,84.06 C65.00,86.34 64.59,87.86 64.06,87.54 C63.54,87.22 62.23,87.91 61.14,89.08 C60.05,90.25 58.69,90.93 58.12,90.57 C56.86,89.80 55.08,92.45 53.79,96.64 ZM 449.15 93.00 C449.33,93.33 449.51,93.67 449.68,94.00 L 452.50 99.50 L 452.50 217.18 C452.28,153.11 452.00,104.08 451.84,102.00 C451.66,99.86 450.46,96.10 449.15,93.00 ZM 446.26 253.74 C446.33,330.08 446.21,407.00 445.84,407.00 C445.58,407.00 445.45,407.43 445.50,408.05 C445.35,407.44 445.46,407.00 445.78,407.00 C446.17,407.00 446.31,330.08 446.26,253.74 ZM 430.97 83.78 C429.40,82.73 426.81,82.08 414.79,81.67 C428.15,82.08 430.67,82.74 430.97,83.78 ZM 218.21 228.48 C219.53,229.29 220.55,229.93 221.23,230.35 C225.49,232.97 229.32,235.76 229.76,236.53 C229.82,236.64 229.89,236.75 229.98,236.85 C229.67,236.60 229.39,236.32 229.15,236.05 C228.35,235.10 223.90,232.09 218.21,228.48 ZM 134.08 214.21 C133.60,213.86 132.95,213.43 132.24,212.98 C132.38,212.99 132.54,213.00 132.69,213.00 C133.41,213.00 134.00,213.42 134.00,213.93 C134.00,214.02 134.03,214.11 134.08,214.21 ZM 414.97 73.82 C418.64,74.02 420.72,74.29 422.50,74.62 C423.29,74.76 424.09,74.92 424.89,75.10 C424.15,74.96 423.34,74.81 422.47,74.66 C420.50,74.31 418.44,74.04 414.97,73.82 ZM 143.45 182.31 C146.35,184.14 148.53,185.50 149.25,185.89 C148.27,185.41 145.97,184.00 143.45,182.31 ZM 137.32 216.05 C137.23,216.02 137.15,216.00 137.11,216.00 C136.70,216.00 136.00,215.67 135.35,215.22 C135.63,215.35 135.93,215.48 136.25,215.58 C136.50,215.66 136.86,215.82 137.32,216.05 ZM 66.60 422.80 C68.28,424.52 70.22,426.02 72.41,427.31 C70.30,426.15 68.33,424.62 66.60,422.80 ZM 52.44 112.17 C52.57,105.10 52.72,101.15 52.90,100.25 C52.91,100.22 52.91,100.19 52.92,100.16 C52.73,101.31 52.57,105.23 52.44,112.17 ZM 159.43 289.37 C159.93,289.04 160.47,288.72 161.00,288.42 C162.93,287.36 164.73,286.25 165.00,285.94 C164.73,286.25 162.93,287.37 161.00,288.44 C160.47,288.73 159.94,289.05 159.43,289.37 ZM 239.43 241.64 C241.88,243.15 244.00,244.72 244.00,245.25 C244.00,244.74 241.88,243.16 239.43,241.64 ZM 154.10 293.13 C154.24,293.07 154.35,293.03 154.43,293.01 C154.32,293.06 154.21,293.10 154.10,293.13 Z" fill="rgba(53,64,71,1)"/>
<path d="M 81.50 438.51 C80.95,438.33 77.91,437.40 74.75,436.45 C71.89,435.59 69.50,434.56 69.07,434.02 C71.21,434.79 76.54,434.79 77.51,433.82 C77.70,433.64 76.60,431.95 75.07,430.08 C72.90,427.43 71.87,426.86 70.39,427.50 C69.35,427.95 68.26,428.28 67.96,428.23 C67.00,428.07 67.10,431.32 67.93,433.00 C65.39,432.91 54.94,419.94 53.44,415.00 C52.87,413.12 52.58,412.93 52.41,395.66 C52.56,397.87 52.78,399.09 53.09,399.67 C53.78,400.95 54.66,402.00 55.05,402.00 C55.44,402.00 56.08,398.62 56.47,394.50 C56.85,390.38 57.58,387.00 58.09,387.00 C59.37,387.00 59.23,384.24 57.93,383.81 C56.31,383.27 56.14,363.80 57.75,363.26 C59.52,362.66 59.52,343.34 57.75,342.75 C55.05,341.85 55.05,125.15 57.75,124.25 C59.18,123.77 59.47,120.00 58.08,120.00 C57.57,120.00 56.85,118.54 56.46,116.75 C55.45,112.02 54.96,111.61 53.27,114.03 C52.85,114.63 52.56,115.22 52.38,115.94 C52.52,106.37 52.71,101.21 52.94,100.06 C54.14,94.00 56.55,89.60 58.12,90.57 C58.69,90.93 60.05,90.25 61.14,89.08 C62.23,87.91 63.54,87.22 64.06,87.54 C64.59,87.86 65.00,86.34 65.00,84.06 C65.00,81.30 65.44,80.00 66.37,80.00 C67.12,80.00 68.80,79.19 70.12,78.19 C71.43,77.20 73.58,76.32 74.91,76.24 C76.24,76.16 77.59,75.73 77.91,75.29 C78.23,74.84 80.07,74.32 82.00,74.13 C83.93,73.94 159.07,73.59 249.00,73.34 C401.65,72.93 413.16,73.02 422.47,74.66 C431.40,76.23 432.95,76.83 437.39,80.46 C443.35,85.33 444.06,86.80 440.29,86.50 C437.08,86.24 433.48,85.44 431.86,84.71 C431.91,84.44 431.85,83.94 431.60,83.25 C431.05,81.65 431.12,81.66 432.40,83.31 C433.49,84.72 433.99,84.83 434.61,83.83 C436.03,81.53 435.77,79.15 434.16,79.77 C433.11,80.17 432.89,79.92 433.41,78.92 C433.82,78.14 433.24,78.53 432.13,79.80 C431.12,80.94 430.48,82.43 430.59,83.29 C427.61,81.14 404.64,81.00 251.99,80.99 L 80.73 80.98 L 75.61 83.37 C68.74,86.58 63.86,91.43 61.20,97.69 L 59.41 101.90 C60.33,99.09 60.07,94.85 58.32,94.27 C55.91,93.48 52.90,102.70 55.11,104.07 C55.78,104.48 56.93,104.58 57.67,104.30 C58.20,104.09 58.65,103.59 59.00,102.90 L 59.01 255.19 C59.01,354.29 59.30,402.23 59.95,410.28 C59.79,409.53 59.26,408.63 58.63,408.11 C57.08,406.82 56.17,407.68 54.21,412.26 C53.20,414.63 53.31,415.31 54.93,416.93 C55.98,417.98 56.57,419.10 56.25,419.42 C55.93,419.74 56.22,420.00 56.89,420.00 C57.57,420.00 57.91,420.34 57.65,420.75 C57.40,421.16 58.27,421.56 59.59,421.64 C60.91,421.72 61.76,421.42 61.49,420.98 C61.21,420.53 61.53,419.99 62.19,419.77 C63.08,419.47 62.95,418.42 61.70,415.78 C60.96,414.22 60.32,412.46 60.09,411.39 C62.03,418.36 66.96,424.56 72.99,427.62 C76.02,429.15 79.18,431.24 80.01,432.26 C81.43,434.02 83.65,434.11 121.51,433.98 C143.50,433.91 171.85,433.60 184.50,433.29 C215.85,432.52 218.01,432.50 230.00,432.88 C235.77,433.07 263.00,433.00 290.50,432.73 C318.00,432.47 345.67,432.63 352.00,433.09 C358.33,433.55 376.55,433.98 392.50,434.05 C415.83,434.14 421.88,434.44 423.44,435.58 C425.33,436.96 425.32,437.00 423.13,437.00 C421.89,437.00 421.16,436.55 421.50,436.00 C422.49,434.40 420.83,434.85 418.72,436.75 C416.90,438.40 407.29,438.51 249.65,438.68 C157.72,438.77 82.05,438.70 81.50,438.51 ZM 426.92 434.14 C424.86,432.47 424.88,432.43 429.17,429.62 C431.55,428.06 434.33,426.63 435.35,426.43 C436.37,426.24 437.76,425.61 438.44,425.05 C439.13,424.48 439.98,424.31 440.34,424.68 C440.70,425.04 441.00,424.58 441.00,423.67 C441.00,422.75 441.56,421.99 442.25,421.98 C443.18,421.97 443.20,421.78 442.33,421.22 C441.47,420.68 441.82,419.11 443.59,415.49 C444.94,412.74 445.85,409.71 445.61,408.75 C445.38,407.79 445.48,407.00 445.84,407.00 C446.56,407.00 446.32,107.86 445.60,103.93 C445.35,102.59 445.06,101.39 444.95,101.25 C444.84,101.11 444.68,100.66 444.59,100.25 C444.50,99.84 443.91,98.57 443.28,97.44 C442.65,96.31 441.93,93.56 441.67,91.33 C441.20,87.24 441.64,86.89 446.07,87.87 C446.22,87.91 446.40,88.04 446.60,88.27 C446.48,88.36 446.32,88.49 446.13,88.65 C444.38,90.16 444.03,98.88 445.65,100.51 C446.34,101.20 446.81,101.95 446.70,102.17 C446.59,102.40 447.25,101.77 448.16,100.79 C449.07,99.81 450.30,99.00 450.89,99.00 C451.03,99.00 451.13,98.95 451.21,98.86 C451.54,100.06 451.77,101.16 451.84,102.00 C452.04,104.47 452.39,173.17 452.62,254.66 C452.99,386.10 452.86,403.00 451.52,404.34 C449.69,406.17 449.50,411.65 451.25,412.29 C453.01,412.92 448.24,421.86 445.04,423.92 C443.55,424.88 442.89,425.01 443.35,424.25 C444.94,421.65 443.04,423.13 440.87,426.18 C439.63,427.93 439.19,429.00 439.90,428.56 C442.36,427.04 439.22,431.68 436.61,433.51 C436.72,433.14 436.77,432.63 436.73,432.07 C436.65,431.01 436.23,430.36 435.79,430.63 C435.36,430.90 435.00,430.59 435.00,429.94 C435.00,429.03 434.66,429.03 433.57,429.94 C432.78,430.60 432.20,431.95 432.27,432.95 C432.35,434.01 433.05,434.64 433.95,434.46 C434.49,434.35 435.09,434.24 435.55,434.17 C432.34,435.95 429.17,435.96 426.92,434.14 ZM 317.76 79.79 C318.21,81.14 327.00,81.27 327.00,79.92 C327.00,78.30 333.87,78.03 376.36,77.98 C402.81,77.95 421.00,77.55 421.00,77.01 C421.00,76.50 412.60,75.84 402.25,75.55 C374.55,74.75 368.32,74.75 359.63,75.52 C354.01,76.01 351.09,75.85 349.39,74.94 C347.47,73.91 346.27,73.92 343.06,74.98 C339.96,76.00 338.49,76.03 336.25,75.10 C333.52,73.97 302.23,74.13 285.25,75.37 C281.81,75.62 279.00,75.41 279.00,74.91 C279.00,74.40 271.95,74.00 263.00,74.00 C253.00,74.00 247.00,74.38 247.00,75.00 C247.00,76.47 241.01,76.23 240.92,74.75 C240.86,73.75 240.74,73.75 240.34,74.75 C239.96,75.68 235.41,76.00 222.42,76.00 C209.19,76.00 204.98,75.70 204.92,74.75 C204.87,73.86 204.68,73.90 204.30,74.86 C203.84,76.01 203.62,76.01 202.89,74.86 C202.26,73.86 202.03,73.83 202.02,74.75 C202.01,75.49 200.67,76.01 198.75,76.02 C196.33,76.03 195.88,76.27 196.99,76.97 C197.86,77.53 220.10,77.96 250.99,78.02 C316.53,78.16 317.23,78.18 317.76,79.79 ZM 299.51 317.27 C295.84,316.33 293.76,312.87 294.33,308.61 C294.62,306.46 295.25,304.44 295.75,304.11 C296.24,303.77 296.94,302.71 297.29,301.75 C297.89,300.12 300.82,300.00 339.22,300.00 L 373.01 300.00 C371.71,300.15 370.50,300.64 369.65,301.49 C368.06,303.08 363.40,302.75 359.27,300.76 C357.66,299.98 354.91,300.04 349.27,300.96 C345.00,301.65 338.35,302.37 334.50,302.54 C330.65,302.71 324.80,303.25 321.50,303.73 C315.21,304.66 315.39,304.87 323.84,306.60 C327.39,307.33 324.63,310.00 320.32,310.00 C318.28,310.00 317.13,310.41 317.50,311.00 C317.87,311.59 316.69,312.00 314.59,312.00 C312.17,312.00 311.22,312.39 311.55,313.25 C311.89,314.11 315.35,314.60 322.72,314.81 C328.59,314.98 334.09,315.55 334.94,316.08 C335.84,316.63 340.76,316.79 346.50,316.46 C362.83,315.52 370.34,315.46 373.12,316.24 C379.16,317.93 383.41,308.60 379.38,302.46 C378.46,301.06 376.70,300.21 374.85,300.00 L 380.51 300.00 L 381.87 303.08 C383.07,305.78 383.06,308.68 381.84,314.00 C380.99,317.70 378.50,317.93 339.50,317.85 C318.60,317.80 300.61,317.54 299.51,317.27 ZM 132.66 213.00 C129.29,212.98 127.73,210.37 127.85,204.95 C127.92,201.99 127.45,198.13 126.82,196.38 C125.89,193.81 125.99,192.15 127.31,187.84 C128.21,184.91 128.78,180.59 128.57,178.25 C128.35,175.82 128.58,174.24 129.11,174.57 C129.62,174.88 129.79,175.53 129.50,176.00 C128.68,177.32 131.19,178.46 134.20,178.14 C136.03,177.95 138.83,179.17 142.90,181.93 C146.19,184.17 149.25,186.02 149.70,186.05 C150.54,186.11 152.99,187.67 155.41,189.47 C155.19,189.33 154.96,189.19 154.71,189.05 C150.21,186.42 147.64,185.60 148.55,187.09 C148.86,187.59 148.61,188.00 148.00,188.00 C146.88,188.00 143.61,190.74 137.83,196.50 C129.55,204.77 126.92,211.44 131.49,212.59 C131.91,212.69 132.31,212.84 132.66,213.00 ZM 114.15 77.81 C136.95,78.55 191.43,77.90 192.44,76.89 C192.78,76.56 185.73,76.00 176.78,75.66 C167.82,75.32 158.93,74.84 157.00,74.59 C155.07,74.33 152.04,74.51 150.25,74.98 C148.32,75.49 147.00,75.47 147.00,74.92 C147.00,74.39 138.30,74.00 126.50,74.00 C113.50,74.00 106.00,74.37 106.00,75.00 C106.00,75.57 102.94,76.00 98.83,76.00 C94.89,76.00 91.92,76.25 92.23,76.56 C92.54,76.87 102.40,77.44 114.15,77.81 ZM 292.62 437.29 C293.23,437.90 350.48,437.02 356.50,436.31 L 363.50 435.48 L 351.50 434.86 C344.90,434.52 324.20,434.39 305.50,434.57 C286.80,434.75 268.61,434.92 265.08,434.95 C252.97,435.05 259.70,436.03 276.05,436.55 C285.05,436.84 292.50,437.17 292.62,437.29 ZM 52.29 375.34 C52.19,352.55 52.15,315.80 52.06,256.00 C51.97,187.50 52.05,143.56 52.33,120.28 C52.38,120.76 52.44,121.29 52.52,121.85 C53.29,127.44 53.40,131.80 53.01,141.50 C52.89,144.25 52.86,188.57 52.93,240.00 C53.00,291.42 52.79,347.87 52.45,365.42 C52.38,369.09 52.33,372.38 52.29,375.34 ZM 189.71 270.66 C190.36,270.25 191.14,269.82 191.99,269.41 C194.18,268.36 195.98,267.16 195.99,266.75 C195.99,266.34 196.79,265.99 197.75,265.97 C198.71,265.95 201.05,264.53 202.95,262.81 C206.39,259.68 206.39,259.67 204.25,258.25 C203.07,257.47 201.07,255.92 199.80,254.81 C198.54,253.70 195.61,251.90 193.30,250.81 C190.99,249.72 188.57,248.19 187.93,247.41 C187.28,246.64 186.14,246.00 185.38,246.00 C184.62,246.00 184.00,245.63 184.00,245.19 C184.00,244.74 182.46,243.64 180.58,242.74 C178.70,241.84 175.06,239.51 172.50,237.55 C169.94,235.60 167.38,234.00 166.82,234.00 C166.25,234.00 163.79,232.65 161.34,231.00 C161.14,230.86 160.93,230.72 160.73,230.59 C160.75,230.58 160.77,230.56 160.80,230.54 C161.05,230.28 162.16,230.55 163.25,231.13 C164.83,231.98 165.08,231.92 164.47,230.85 C163.86,229.76 163.97,229.74 165.05,230.75 C165.79,231.44 167.41,232.00 168.64,232.00 C170.90,232.00 172.27,233.33 172.66,235.90 C172.91,237.61 174.68,238.83 178.00,239.59 C179.38,239.90 181.85,240.68 183.50,241.32 C185.15,241.96 186.87,242.36 187.32,242.21 C187.78,242.07 187.86,242.41 187.52,242.98 C187.17,243.54 187.47,244.04 188.19,244.08 C189.20,244.14 189.21,244.27 188.25,244.66 C187.56,244.94 187.00,245.61 187.00,246.14 C187.00,246.68 187.45,246.84 188.00,246.50 C188.55,246.16 189.00,246.28 189.00,246.77 C189.00,247.27 189.56,247.72 190.25,247.78 C190.94,247.84 193.64,248.41 196.25,249.03 C200.09,249.94 201.01,250.58 201.03,252.33 C201.08,255.37 203.12,257.70 205.58,257.52 C206.87,257.42 207.68,257.96 207.70,258.93 C207.74,260.96 205.09,264.00 203.29,264.00 C202.51,264.00 202.14,264.42 202.46,264.93 C202.77,265.44 202.58,266.14 202.02,266.49 C201.46,266.84 200.99,268.10 200.98,269.31 C200.98,270.51 200.64,271.05 200.23,270.50 C199.30,269.23 194.00,268.98 194.00,270.20 C194.00,270.71 193.55,270.84 192.99,270.49 C192.19,270.00 190.86,270.14 189.71,270.66 ZM 128.50 342.62 C126.99,341.52 126.65,339.32 126.28,328.50 C125.66,309.91 125.95,309.34 140.70,300.50 C143.35,298.91 145.93,297.41 148.09,296.19 C147.37,296.77 146.89,297.30 146.92,297.63 C147.08,299.96 145.69,302.10 144.36,301.58 C143.55,301.28 143.15,301.44 143.46,301.94 C144.26,303.24 142.93,303.86 138.04,304.47 C132.85,305.13 132.35,305.42 130.57,308.86 C127.92,313.99 126.77,323.60 128.09,329.53 C128.85,332.90 129.72,334.70 130.40,334.32 C131.01,333.98 130.94,334.31 130.25,335.05 C129.56,335.79 129.00,337.43 129.00,338.70 C129.00,339.96 129.45,341.00 130.00,341.00 C130.55,341.00 131.00,340.52 131.00,339.94 C131.00,339.36 131.45,339.16 132.00,339.50 C132.55,339.84 133.00,339.39 133.00,338.50 C133.00,337.61 133.46,337.16 134.02,337.51 C135.95,338.71 138.73,338.78 141.04,338.16 C138.49,339.57 137.39,340.00 136.80,340.00 C135.87,340.00 134.84,340.45 134.50,340.99 C133.16,343.17 130.30,343.94 128.50,342.62 ZM 448.61 242.12 C449.26,243.13 449.60,242.68 449.87,240.50 C450.19,237.87 450.34,237.75 451.05,239.50 C451.51,240.63 451.82,234.09 451.78,224.50 C451.73,214.12 451.43,209.25 451.00,212.00 L 450.30 216.50 L 449.98 211.00 C449.70,206.13 449.62,205.95 449.31,209.50 C449.11,211.70 448.44,214.49 447.83,215.70 C446.55,218.23 447.19,239.91 448.61,242.12 ZM 237.97 240.75 C240.96,242.50 244.00,244.63 244.00,245.25 C244.00,245.66 244.53,246.00 245.19,246.00 C247.08,246.00 265.84,257.35 266.47,258.88 C267.33,260.97 265.70,262.38 254.66,269.08 C249.07,272.47 241.80,276.94 238.50,279.00 C238.47,279.01 238.44,279.03 238.41,279.05 C238.65,278.70 238.70,278.32 238.47,277.95 C238.15,277.43 238.34,277.00 238.91,277.00 C239.47,277.00 239.68,276.33 239.36,275.51 C238.69,273.76 239.95,273.21 245.78,272.68 C249.84,272.31 252.89,270.10 252.97,267.46 C252.99,266.89 253.79,266.37 254.75,266.30 C260.67,265.87 261.06,265.60 262.39,261.03 C263.68,256.60 263.65,256.47 261.11,254.90 C259.67,254.02 258.27,253.59 258.00,253.94 C257.54,254.52 256.53,254.56 253.30,254.15 C252.65,254.07 251.52,252.76 250.80,251.25 C249.72,248.99 248.73,248.45 245.29,248.19 C242.02,247.96 240.94,247.41 240.35,245.69 C239.94,244.49 239.69,243.17 239.80,242.77 C239.91,242.35 239.11,241.56 237.97,240.75 ZM 450.81 141.25 C450.91,151.01 451.23,159.00 451.50,159.00 C451.77,159.00 451.95,148.31 451.88,135.25 C451.82,122.19 451.56,112.29 451.31,113.26 C451.06,114.23 450.43,114.77 449.92,114.45 C449.42,114.14 449.00,114.59 449.00,115.45 C449.00,116.32 448.45,117.91 447.78,118.99 C446.81,120.54 446.81,121.21 447.78,122.18 C449.37,123.77 449.36,128.70 447.75,129.29 C446.75,129.65 446.75,130.16 447.75,131.86 C448.44,133.02 449.09,135.67 449.19,137.74 C449.29,139.81 449.66,137.45 450.00,132.50 C450.52,125.00 450.65,126.46 450.81,141.25 ZM 236.50 280.24 C230.20,284.12 214.06,293.98 199.25,303.00 C201.30,301.52 202.68,299.95 202.48,298.87 C202.27,297.81 202.49,297.19 202.97,297.48 C203.44,297.77 203.98,297.55 204.17,296.98 C204.36,296.42 206.15,295.83 208.14,295.67 C212.70,295.31 217.00,292.56 217.00,290.00 C217.00,288.71 218.41,287.32 221.10,285.95 C223.36,284.79 224.91,284.34 224.55,284.93 C223.45,286.71 225.57,286.13 227.35,284.17 C228.26,283.16 228.67,281.96 228.25,281.51 C227.84,281.05 228.06,281.00 228.75,281.40 C229.44,281.79 230.00,281.61 230.00,281.00 C230.00,280.39 230.45,280.16 231.00,280.50 C231.55,280.84 232.00,280.59 232.00,279.94 C232.00,279.03 232.34,279.04 233.44,279.95 C234.16,280.55 235.41,280.56 236.50,280.24 ZM 160.47 230.42 C158.35,229.05 156.41,228.00 155.95,228.00 C155.43,228.00 155.00,227.55 155.00,227.00 C155.00,226.45 154.49,226.00 153.87,226.00 C153.25,226.00 149.54,223.82 145.62,221.15 C141.70,218.48 137.49,215.97 136.25,215.58 C135.47,215.33 134.78,214.95 134.38,214.57 C134.70,214.52 135.20,214.22 135.77,213.71 C137.40,212.23 137.87,212.34 142.00,215.11 C144.46,216.77 146.48,218.68 146.49,219.38 C146.51,221.48 149.86,224.15 152.25,223.96 C153.49,223.86 155.22,223.83 156.10,223.89 C157.85,224.01 162.92,228.00 161.32,228.00 C160.78,228.00 160.33,228.68 160.33,229.50 C160.33,229.91 160.39,230.23 160.47,230.42 ZM 157.68 290.57 C158.57,289.90 159.81,289.10 161.00,288.44 C162.93,287.37 164.73,286.25 165.00,285.94 C165.27,285.64 166.98,284.79 168.79,284.06 C170.60,283.32 173.98,281.33 176.29,279.63 C178.61,277.92 182.19,275.76 184.25,274.81 C185.64,274.18 186.86,273.44 187.51,272.87 C187.32,273.52 187.49,273.82 187.93,273.54 C188.42,273.24 188.31,274.36 187.68,276.04 C187.05,277.71 186.38,278.63 186.19,278.07 C185.99,277.47 184.86,277.70 183.43,278.64 C181.48,279.92 180.98,279.96 180.92,278.87 C180.86,277.84 180.71,277.82 180.34,278.76 C180.06,279.45 179.43,279.76 178.94,279.46 C177.52,278.59 169.94,283.35 170.48,284.78 C170.98,286.13 165.18,290.23 163.89,289.43 C163.48,289.18 162.87,289.41 162.54,289.94 C162.21,290.47 161.28,290.66 160.47,290.35 C159.62,290.03 158.99,290.36 158.98,291.14 C158.97,292.27 158.82,292.27 158.12,291.17 C157.95,290.90 157.81,290.70 157.68,290.57 ZM 174.61 201.76 C177.43,203.41 180.26,205.40 181.95,207.07 C184.13,209.23 186.82,211.00 187.91,211.00 C188.19,211.00 188.99,211.34 190.19,211.93 C189.37,211.97 188.49,212.37 187.00,213.09 C183.26,214.91 182.00,214.75 182.00,212.44 C182.00,211.65 181.52,211.00 180.94,211.00 C180.36,211.00 180.16,210.55 180.50,210.00 C180.84,209.45 180.65,209.00 180.08,209.00 C179.51,209.00 178.76,207.89 178.42,206.54 C178.08,205.18 176.94,203.80 175.89,203.46 C174.82,203.13 174.30,202.41 174.61,201.76 ZM 202.00 436.07 C207.32,437.09 220.32,437.09 221.93,436.07 C223.54,435.04 209.09,434.21 202.50,434.95 L 198.50 435.39 ZM 157.81 191.34 C159.80,192.97 161.33,194.46 161.23,194.91 C161.07,195.59 161.33,195.91 161.79,195.63 C162.26,195.34 163.25,195.96 164.00,197.00 C164.75,198.04 165.72,198.67 166.15,198.40 C166.98,197.90 170.45,199.37 174.07,201.45 C173.58,201.54 172.92,201.35 172.39,200.91 C171.67,200.31 170.52,200.18 169.83,200.61 C169.13,201.04 167.38,201.44 165.93,201.51 C163.69,201.62 162.99,200.90 161.12,196.57 C160.12,194.25 159.14,192.65 157.81,191.34 ZM 375.82 308.25 C375.39,311.29 370.58,311.96 369.10,309.19 C367.77,306.70 368.56,306.00 372.74,306.00 C375.69,306.00 376.10,306.29 375.82,308.25 ZM 196.02 304.98 C189.26,309.09 182.97,312.92 178.26,315.77 C180.10,314.63 181.46,313.47 181.57,312.69 C181.99,309.84 185.42,307.36 189.23,307.15 C191.21,307.04 193.71,306.16 196.02,304.98 ZM 197.03 215.67 C202.05,218.54 208.38,222.34 214.11,225.90 C212.36,224.94 210.22,224.27 208.89,224.52 C207.71,224.75 205.80,224.27 204.65,223.47 C203.50,222.66 202.90,222.00 203.31,222.00 C204.30,222.00 200.58,218.40 197.03,215.67 ZM 445.53 417.72 C445.42,419.81 445.51,419.85 447.25,418.28 C448.98,416.71 449.05,416.73 448.41,418.56 C447.76,420.42 447.79,420.42 449.30,418.50 C450.16,417.40 450.44,416.35 449.92,416.16 C449.41,415.98 449.24,415.42 449.55,414.91 C449.86,414.41 449.61,414.00 449.00,414.00 C448.39,414.00 448.16,413.55 448.50,413.00 C448.84,412.45 448.69,412.00 448.17,412.00 C446.98,412.00 445.70,414.79 445.53,417.72 ZM 448.09 195.61 C449.21,196.96 449.45,196.95 450.24,195.54 C451.35,193.55 450.22,189.76 448.67,190.28 C446.96,190.84 446.64,193.86 448.09,195.61 ZM 215.23 226.60 C220.11,229.65 224.44,232.47 226.96,234.28 C226.25,233.93 225.48,233.65 224.75,233.50 C218.71,232.29 217.84,231.86 218.42,230.36 C218.73,229.54 218.54,229.16 217.99,229.51 C217.44,229.84 217.00,229.53 216.99,228.81 C216.99,228.14 216.27,227.34 215.23,226.60 ZM 134.86 184.11 C133.93,184.69 134.54,184.97 136.75,184.98 C140.55,185.00 140.84,184.04 137.83,181.40 C136.63,180.36 135.99,180.06 136.39,180.75 C136.86,181.55 136.47,182.03 135.31,182.08 C134.08,182.13 133.94,182.33 134.86,182.70 C136.01,183.16 136.01,183.38 134.86,184.11 ZM 177.75 316.08 C174.98,317.76 172.80,319.08 171.46,319.88 C169.87,320.84 168.22,321.83 166.80,322.68 C166.73,322.49 166.45,322.26 165.97,321.96 C164.89,321.27 164.84,321.03 165.81,321.02 C166.53,321.01 166.86,320.59 166.55,320.09 C166.24,319.59 167.12,319.30 168.50,319.45 C170.38,319.66 174.61,317.94 177.75,316.08 ZM 153.30 330.91 C149.71,333.09 146.91,334.77 144.71,336.06 C145.24,335.41 145.46,334.66 145.25,333.86 C144.78,332.06 146.67,331.40 150.74,331.92 C151.08,331.97 152.03,331.58 153.30,330.91 ZM 147.22 210.75 C147.56,212.02 147.05,212.54 145.38,212.64 C143.08,212.78 142.59,211.17 144.50,209.77 C146.06,208.62 146.73,208.86 147.22,210.75 ZM 298.46 313.93 C298.82,314.52 300.33,314.98 301.81,314.95 L 304.50 314.91 L 301.50 313.60 C298.25,312.17 297.43,312.27 298.46,313.93 ZM 167.37 224.47 C166.52,226.69 164.33,227.03 164.49,224.92 C164.56,223.89 165.01,222.69 165.47,222.27 C165.94,221.85 165.95,222.14 165.50,222.92 C164.89,223.97 165.09,224.18 166.29,223.72 C167.39,223.30 167.73,223.54 167.37,224.47 ZM 446.73 88.42 C447.48,89.34 448.47,91.33 449.39,93.57 C448.91,92.82 448.37,92.08 447.80,91.43 C446.80,90.29 446.32,88.94 446.72,88.43 C446.73,88.42 446.73,88.42 446.73,88.42 ZM 154.47 293.00 C155.22,292.71 156.06,292.15 156.50,291.60 C156.55,291.55 156.60,291.48 156.67,291.42 L 156.67 291.42 C156.34,292.29 155.38,293.00 154.56,293.00 C154.53,293.00 154.50,293.00 154.47,293.00 ZM 163.72 324.55 C163.63,324.61 163.54,324.66 163.46,324.70 C161.78,325.74 160.20,326.70 158.72,327.61 C160.55,326.42 162.38,325.30 163.72,324.55 ZM 230.77 237.43 C231.45,237.87 232.15,238.19 232.70,238.27 C232.72,238.27 232.73,238.28 232.75,238.28 C232.72,238.28 232.70,238.27 232.68,238.27 C232.10,238.18 231.40,237.86 230.77,237.43 Z" fill="rgba(55,68,76,1)"/>
<path d="M 129.00 338.70 C129.00,337.43 129.56,335.79 130.25,335.05 C130.94,334.31 131.01,333.98 130.40,334.32 C129.72,334.70 128.85,332.90 128.09,329.53 C126.77,323.60 127.92,313.99 130.57,308.86 C132.35,305.42 132.85,305.13 138.04,304.47 C142.93,303.86 144.26,303.24 143.46,301.94 C143.15,301.44 143.55,301.28 144.36,301.58 C145.69,302.10 147.08,299.96 146.92,297.63 C146.84,296.50 152.61,293.00 154.56,293.00 C155.38,293.00 156.34,292.29 156.67,291.42 C157.16,290.14 157.44,290.09 158.12,291.17 C158.82,292.27 158.97,292.27 158.98,291.14 C158.99,290.36 159.62,290.03 160.47,290.35 C161.28,290.66 162.21,290.47 162.54,289.94 C162.87,289.41 163.48,289.18 163.89,289.43 C165.18,290.23 170.98,286.13 170.48,284.78 C169.94,283.35 177.52,278.59 178.94,279.46 C179.43,279.76 180.06,279.45 180.34,278.76 C180.71,277.82 180.86,277.84 180.92,278.87 C180.98,279.96 181.48,279.92 183.43,278.64 C184.86,277.70 185.99,277.47 186.19,278.07 C186.38,278.63 187.05,277.71 187.68,276.04 C188.31,274.36 188.42,273.24 187.93,273.54 C187.43,273.85 187.28,273.42 187.60,272.59 C188.28,270.84 191.51,269.58 192.99,270.49 C193.55,270.84 194.00,270.71 194.00,270.20 C194.00,268.98 199.30,269.23 200.23,270.50 C200.64,271.05 200.98,270.51 200.98,269.31 C200.99,268.10 201.46,266.84 202.02,266.49 C202.58,266.14 202.77,265.44 202.46,264.93 C202.14,264.42 202.51,264.00 203.29,264.00 C205.09,264.00 207.74,260.96 207.70,258.93 C207.68,257.96 206.87,257.42 205.58,257.52 C203.12,257.70 201.08,255.37 201.03,252.33 C201.01,250.58 200.09,249.94 196.25,249.03 C193.64,248.41 190.94,247.84 190.25,247.78 C189.56,247.72 189.00,247.27 189.00,246.77 C189.00,246.28 188.55,246.16 188.00,246.50 C187.45,246.84 187.00,246.68 187.00,246.14 C187.00,245.61 187.56,244.94 188.25,244.66 C189.21,244.27 189.20,244.14 188.19,244.08 C187.47,244.04 187.17,243.54 187.52,242.98 C187.86,242.41 187.78,242.07 187.32,242.21 C186.87,242.36 185.15,241.96 183.50,241.32 C181.85,240.68 179.38,239.90 178.00,239.59 C174.68,238.83 172.91,237.61 172.66,235.90 C172.27,233.33 170.90,232.00 168.64,232.00 C167.41,232.00 165.79,231.44 165.05,230.75 C163.97,229.74 163.86,229.76 164.47,230.85 C165.08,231.92 164.83,231.98 163.25,231.13 C162.16,230.55 161.05,230.28 160.80,230.54 C160.54,230.79 160.33,230.32 160.33,229.50 C160.33,228.68 160.78,228.00 161.32,228.00 C162.92,228.00 157.85,224.01 156.10,223.89 C155.22,223.83 153.49,223.86 152.25,223.96 C149.86,224.15 146.51,221.48 146.49,219.38 C146.48,218.68 144.46,216.77 142.00,215.11 C137.87,212.34 137.40,212.23 135.77,213.71 C134.80,214.59 134.00,214.84 134.00,214.26 C134.00,213.69 132.87,212.93 131.49,212.59 C126.92,211.44 129.55,204.77 137.83,196.50 C143.61,190.74 146.88,188.00 148.00,188.00 C148.61,188.00 148.86,187.59 148.55,187.09 C147.64,185.60 150.21,186.42 154.71,189.05 C157.89,190.89 159.47,192.75 161.12,196.57 C162.99,200.90 163.69,201.62 165.93,201.51 C167.38,201.44 169.13,201.04 169.83,200.61 C170.52,200.18 171.67,200.31 172.39,200.91 C173.10,201.50 174.05,201.65 174.50,201.24 C174.95,200.83 175.02,201.03 174.65,201.68 C174.26,202.36 174.78,203.11 175.89,203.46 C176.94,203.80 178.08,205.18 178.42,206.54 C178.76,207.89 179.51,209.00 180.08,209.00 C180.65,209.00 180.84,209.45 180.50,210.00 C180.16,210.55 180.36,211.00 180.94,211.00 C181.52,211.00 182.00,211.65 182.00,212.44 C182.00,214.75 183.26,214.91 187.00,213.09 C190.40,211.44 190.61,211.46 194.19,213.67 C198.11,216.09 204.58,222.00 203.31,222.00 C202.90,222.00 203.50,222.66 204.65,223.47 C205.80,224.27 207.71,224.75 208.89,224.52 C211.45,224.03 216.98,226.96 216.99,228.81 C217.00,229.53 217.44,229.84 217.99,229.51 C218.54,229.16 218.73,229.54 218.42,230.36 C217.84,231.86 218.71,232.29 224.75,233.50 C226.54,233.86 228.60,235.01 229.33,236.06 C230.06,237.11 231.57,238.10 232.68,238.27 C235.14,238.64 240.06,241.76 239.80,242.77 C239.69,243.17 239.94,244.49 240.35,245.69 C240.94,247.41 242.02,247.96 245.29,248.19 C248.73,248.45 249.72,248.99 250.80,251.25 C251.52,252.76 252.65,254.07 253.30,254.15 C256.53,254.56 257.54,254.52 258.00,253.94 C258.27,253.59 259.67,254.02 261.11,254.90 C263.65,256.47 263.68,256.60 262.39,261.03 C261.06,265.60 260.67,265.87 254.75,266.30 C253.79,266.37 252.99,266.89 252.97,267.46 C252.89,270.10 249.84,272.31 245.78,272.68 C239.95,273.21 238.69,273.76 239.36,275.51 C239.68,276.33 239.47,277.00 238.91,277.00 C238.34,277.00 238.15,277.43 238.47,277.95 C239.48,279.59 235.10,281.33 233.44,279.95 C232.34,279.04 232.00,279.03 232.00,279.94 C232.00,280.59 231.55,280.84 231.00,280.50 C230.45,280.16 230.00,280.39 230.00,281.00 C230.00,281.61 229.44,281.79 228.75,281.40 C228.06,281.00 227.84,281.05 228.25,281.51 C228.67,281.96 228.26,283.16 227.35,284.17 C225.57,286.13 223.45,286.71 224.55,284.93 C224.91,284.34 223.36,284.79 221.10,285.95 C218.41,287.32 217.00,288.71 217.00,290.00 C217.00,292.56 212.70,295.31 208.14,295.67 C206.15,295.83 204.36,296.42 204.17,296.98 C203.98,297.55 203.44,297.77 202.97,297.48 C202.49,297.19 202.27,297.81 202.48,298.87 C202.97,301.46 194.33,306.86 189.23,307.15 C185.42,307.36 181.99,309.84 181.57,312.69 C181.26,314.82 171.63,319.79 168.50,319.45 C167.12,319.30 166.24,319.59 166.55,320.09 C166.86,320.59 166.53,321.01 165.81,321.02 C164.84,321.03 164.89,321.27 165.97,321.96 C167.21,322.74 167.14,323.01 165.51,323.64 C164.44,324.04 160.96,326.11 157.77,328.23 C154.58,330.35 151.42,332.01 150.74,331.92 C146.67,331.40 144.78,332.06 145.25,333.86 C146.20,337.48 138.18,340.08 134.02,337.51 C133.46,337.16 133.00,337.61 133.00,338.50 C133.00,339.39 132.55,339.84 132.00,339.50 C131.45,339.16 131.00,339.36 131.00,339.94 C131.00,340.52 130.55,341.00 130.00,341.00 C129.45,341.00 129.00,339.96 129.00,338.70 ZM 53.09 399.67 C52.14,397.88 51.99,389.95 52.45,365.42 C52.79,347.87 53.00,291.42 52.93,240.00 C52.86,188.57 52.89,144.25 53.01,141.50 C53.40,131.80 53.29,127.44 52.52,121.85 C51.91,117.45 52.08,115.73 53.27,114.03 C54.96,111.61 55.45,112.02 56.46,116.75 C56.85,118.54 57.57,120.00 58.08,120.00 C59.47,120.00 59.18,123.77 57.75,124.25 C55.05,125.15 55.05,341.85 57.75,342.75 C59.52,343.34 59.52,362.66 57.75,363.26 C56.14,363.80 56.31,383.27 57.93,383.81 C59.23,384.24 59.37,387.00 58.09,387.00 C57.58,387.00 56.85,390.38 56.47,394.50 C56.08,398.62 55.44,402.00 55.05,402.00 C54.66,402.00 53.78,400.95 53.09,399.67 ZM 334.94 316.08 C334.09,315.55 328.59,314.98 322.72,314.81 C315.35,314.60 311.89,314.11 311.55,313.25 C311.22,312.39 312.17,312.00 314.59,312.00 C316.69,312.00 317.87,311.59 317.50,311.00 C317.13,310.41 318.28,310.00 320.32,310.00 C324.63,310.00 327.39,307.33 323.84,306.60 C315.39,304.87 315.21,304.66 321.50,303.73 C324.80,303.25 330.65,302.71 334.50,302.54 C338.35,302.37 345.00,301.65 349.27,300.96 C354.91,300.04 357.66,299.98 359.27,300.76 C363.40,302.75 368.06,303.08 369.65,301.49 C372.09,299.05 377.50,299.59 379.38,302.46 C383.41,308.60 379.16,317.93 373.12,316.24 C370.34,315.46 362.83,315.52 346.50,316.46 C340.76,316.79 335.84,316.63 334.94,316.08 ZM 317.76 79.79 C317.23,78.18 316.53,78.16 250.99,78.02 C220.10,77.96 197.86,77.53 196.99,76.97 C195.88,76.27 196.33,76.03 198.75,76.02 C200.67,76.01 202.01,75.49 202.02,74.75 C202.03,73.83 202.26,73.86 202.89,74.86 C203.62,76.01 203.84,76.01 204.30,74.86 C204.68,73.90 204.87,73.86 204.92,74.75 C204.98,75.70 209.19,76.00 222.42,76.00 C235.41,76.00 239.96,75.68 240.34,74.75 C240.74,73.75 240.86,73.75 240.92,74.75 C241.01,76.23 247.00,76.47 247.00,75.00 C247.00,74.38 253.00,74.00 263.00,74.00 C271.95,74.00 279.00,74.40 279.00,74.91 C279.00,75.41 281.81,75.62 285.25,75.37 C302.23,74.13 333.52,73.97 336.25,75.10 C338.49,76.03 339.96,76.00 343.06,74.98 C346.27,73.92 347.47,73.91 349.39,74.94 C351.09,75.85 354.01,76.01 359.63,75.52 C368.32,74.75 374.55,74.75 402.25,75.55 C412.60,75.84 421.00,76.50 421.00,77.01 C421.00,77.55 402.81,77.95 376.36,77.98 C333.87,78.03 327.00,78.30 327.00,79.92 C327.00,81.27 318.21,81.14 317.76,79.79 ZM 114.15 77.81 C102.40,77.44 92.54,76.87 92.23,76.56 C91.92,76.25 94.89,76.00 98.83,76.00 C102.94,76.00 106.00,75.57 106.00,75.00 C106.00,74.37 113.50,74.00 126.50,74.00 C138.30,74.00 147.00,74.39 147.00,74.92 C147.00,75.47 148.32,75.49 150.25,74.98 C152.04,74.51 155.07,74.33 157.00,74.59 C158.93,74.84 167.82,75.32 176.78,75.66 C185.73,76.00 192.78,76.56 192.44,76.89 C191.43,77.90 136.95,78.55 114.15,77.81 ZM 292.62 437.29 C292.50,437.17 285.05,436.84 276.05,436.55 C259.70,436.03 252.97,435.05 265.08,434.95 C268.61,434.92 286.80,434.75 305.50,434.57 C324.20,434.39 344.90,434.52 351.50,434.86 L 363.50 435.48 L 356.50 436.31 C350.48,437.02 293.23,437.90 292.62,437.29 ZM 448.61 242.12 C447.19,239.91 446.55,218.23 447.83,215.70 C448.44,214.49 449.11,211.70 449.31,209.50 C449.62,205.95 449.70,206.13 449.98,211.00 L 450.30 216.50 L 451.00 212.00 C451.43,209.25 451.73,214.12 451.78,224.50 C451.82,234.09 451.51,240.63 451.05,239.50 C450.34,237.75 450.19,237.87 449.87,240.50 C449.60,242.68 449.26,243.13 448.61,242.12 ZM 450.81 141.25 C450.65,126.46 450.52,125.00 450.00,132.50 C449.66,137.45 449.29,139.81 449.19,137.74 C449.09,135.67 448.44,133.02 447.75,131.86 C446.75,130.16 446.75,129.65 447.75,129.29 C449.36,128.70 449.37,123.77 447.78,122.18 C446.81,121.21 446.81,120.54 447.78,118.99 C448.45,117.91 449.00,116.32 449.00,115.45 C449.00,114.59 449.42,114.14 449.92,114.45 C450.43,114.77 451.06,114.23 451.31,113.26 C451.56,112.29 451.82,122.19 451.88,135.25 C451.95,148.31 451.77,159.00 451.50,159.00 C451.23,159.00 450.91,151.01 450.81,141.25 ZM 57.65 420.75 C57.91,420.34 57.57,420.00 56.89,420.00 C56.22,420.00 55.93,419.74 56.25,419.42 C56.57,419.10 55.98,417.98 54.93,416.93 C53.31,415.31 53.20,414.63 54.21,412.26 C56.17,407.68 57.08,406.82 58.63,408.11 C59.38,408.73 60.00,409.91 60.00,410.72 C60.00,411.53 60.77,413.81 61.70,415.78 C62.95,418.42 63.08,419.47 62.19,419.77 C61.53,419.99 61.21,420.53 61.49,420.98 C61.76,421.42 60.91,421.72 59.59,421.64 C58.27,421.56 57.40,421.16 57.65,420.75 ZM 446.70 102.17 C446.81,101.95 446.34,101.20 445.65,100.51 C444.03,98.88 444.38,90.16 446.13,88.65 C446.87,88.02 447.13,87.92 446.72,88.43 C446.32,88.94 446.80,90.29 447.80,91.43 C450.35,94.33 452.25,99.00 450.89,99.00 C450.30,99.00 449.07,99.81 448.16,100.79 C447.25,101.77 446.59,102.40 446.70,102.17 ZM 68.30 433.57 C67.14,432.24 66.87,428.05 67.96,428.23 C68.26,428.28 69.35,427.95 70.39,427.50 C71.87,426.86 72.90,427.43 75.07,430.08 C76.60,431.95 77.70,433.64 77.51,433.82 C76.38,434.95 69.34,434.76 68.30,433.57 ZM 55.11 104.07 C52.90,102.70 55.91,93.48 58.32,94.27 C60.81,95.09 60.28,103.30 57.67,104.30 C56.93,104.58 55.78,104.48 55.11,104.07 ZM 202.00 436.07 L 198.50 435.39 L 202.50 434.95 C209.09,434.21 223.54,435.04 221.93,436.07 C220.32,437.09 207.32,437.09 202.00,436.07 ZM 375.82 308.25 C376.10,306.29 375.69,306.00 372.74,306.00 C368.56,306.00 367.77,306.70 369.10,309.19 C370.58,311.96 375.39,311.29 375.82,308.25 ZM 445.53 417.72 C445.70,414.79 446.98,412.00 448.17,412.00 C448.69,412.00 448.84,412.45 448.50,413.00 C448.16,413.55 448.39,414.00 449.00,414.00 C449.61,414.00 449.86,414.41 449.55,414.91 C449.24,415.42 449.41,415.98 449.92,416.16 C450.44,416.35 450.16,417.40 449.30,418.50 C447.79,420.42 447.76,420.42 448.41,418.56 C449.05,416.73 448.98,416.71 447.25,418.28 C445.51,419.85 445.42,419.81 445.53,417.72 ZM 430.66 83.55 C430.35,82.75 431.01,81.06 432.13,79.80 C433.24,78.53 433.82,78.14 433.41,78.92 C432.89,79.92 433.11,80.17 434.16,79.77 C435.77,79.15 436.03,81.53 434.61,83.83 C433.99,84.83 433.49,84.72 432.40,83.31 C431.12,81.66 431.05,81.65 431.60,83.25 C432.34,85.35 431.45,85.63 430.66,83.55 ZM 432.27 432.95 C432.20,431.95 432.78,430.60 433.57,429.94 C434.66,429.03 435.00,429.03 435.00,429.94 C435.00,430.59 435.36,430.90 435.79,430.63 C436.23,430.36 436.65,431.01 436.73,432.07 C436.81,433.13 436.57,434.03 436.19,434.08 C435.81,434.12 434.80,434.29 433.95,434.46 C433.05,434.64 432.35,434.01 432.27,432.95 ZM 448.09 195.61 C446.64,193.86 446.96,190.84 448.67,190.28 C450.22,189.76 451.35,193.55 450.24,195.54 C449.45,196.95 449.21,196.96 448.09,195.61 ZM 134.86 184.11 C136.01,183.38 136.01,183.16 134.86,182.70 C133.94,182.33 134.08,182.13 135.31,182.08 C136.47,182.03 136.86,181.55 136.39,180.75 C135.99,180.06 136.63,180.36 137.83,181.40 C140.84,184.04 140.55,185.00 136.75,184.98 C134.54,184.97 133.93,184.69 134.86,184.11 ZM 147.22 210.75 C146.73,208.86 146.06,208.62 144.50,209.77 C142.59,211.17 143.08,212.78 145.38,212.64 C147.05,212.54 147.56,212.02 147.22,210.75 ZM 298.46 313.93 C297.43,312.27 298.25,312.17 301.50,313.60 L 304.50 314.91 L 301.81 314.95 C300.33,314.98 298.82,314.52 298.46,313.93 ZM 167.37 224.47 C167.73,223.54 167.39,223.30 166.29,223.72 C165.09,224.18 164.89,223.97 165.50,222.92 C165.95,222.14 165.94,221.85 165.47,222.27 C165.01,222.69 164.56,223.89 164.49,224.92 C164.33,227.03 166.52,226.69 167.37,224.47 Z" fill="rgba(57,71,79,1)"/>
<path d="M 321.17 222.75 C319.03,219.86 315.27,215.48 312.81,213.00 C311.26,211.44 309.79,209.93 308.43,208.49 C310.67,210.66 310.91,210.12 309.35,207.00 C308.53,205.35 307.50,204.00 307.07,204.00 C306.64,204.00 305.10,202.90 303.65,201.55 C297.05,195.43 304.44,184.19 312.08,188.71 C313.69,189.66 315.25,191.20 315.55,192.14 C315.84,193.08 317.76,194.82 319.79,196.01 C321.42,196.95 322.14,197.28 321.74,196.65 C327.46,202.56 329.99,204.26 330.01,202.25 C330.02,200.10 375.95,154.05 378.79,153.34 C379.12,153.26 379.46,153.23 379.81,153.25 C379.75,153.56 380.14,154.14 381.00,155.00 C383.16,157.16 383.64,161.35 381.95,163.29 C379.65,165.95 372.81,175.50 371.82,177.44 C370.90,179.24 370.94,179.31 372.19,178.00 C373.13,177.02 374.05,176.03 374.94,175.04 C369.04,182.27 361.84,190.56 356.08,196.53 C353.42,199.30 350.02,203.35 348.55,205.53 C347.53,207.04 344.99,210.36 342.14,213.94 C344.22,211.19 342.20,212.99 336.01,219.11 C331.62,223.45 327.77,227.00 327.45,227.00 C327.13,227.00 325.89,226.48 324.68,225.84 C323.61,225.27 323.10,225.02 323.05,225.15 C322.47,224.46 321.85,223.66 321.17,222.75 ZM 361.00 189.99 C361.00,190.61 362.80,189.04 365.00,186.50 C369.38,181.44 369.72,180.79 367.55,181.62 C365.80,182.29 361.00,188.42 361.00,189.99 ZM 383.48 154.98 C384.92,156.25 386.00,158.04 386.00,159.72 C386.00,159.74 386.00,159.76 386.00,159.78 C385.92,158.36 384.81,156.42 383.48,154.98 ZM 327.71 228.14 C329.54,227.85 331.74,226.20 334.61,223.05 C331.59,226.43 329.55,228.06 327.71,228.14 ZM 298.00 195.30 C298.03,195.94 299.30,197.92 301.14,200.27 C299.14,197.79 298.00,196.03 298.00,195.33 C298.00,195.32 298.00,195.31 298.00,195.30 ZM 311.70 186.69 C310.45,185.68 309.49,185.06 309.06,185.00 C309.09,185.00 309.12,185.00 309.14,185.00 C309.51,185.00 310.43,185.63 311.70,186.69 ZM 302.17 189.91 C301.27,190.77 300.43,191.66 299.74,192.46 C300.43,191.65 301.27,190.77 302.17,189.91 Z" fill="rgba(73,170,88,1)"/>
<path d="M 323.87 226.34 C322.63,224.83 322.71,224.78 324.68,225.84 C325.89,226.48 327.13,227.00 327.45,227.00 C327.77,227.00 331.62,223.45 336.01,219.11 C345.07,210.14 345.19,210.46 336.61,220.75 C330.20,228.43 326.82,229.91 323.87,226.34 ZM 303.75 203.42 C300.59,199.82 298.00,196.15 298.00,195.28 C298.00,193.30 306.89,185.00 309.01,185.00 C309.86,185.00 313.47,187.96 317.03,191.58 C322.69,197.33 323.04,197.89 319.79,196.01 C317.76,194.82 315.84,193.08 315.55,192.14 C315.25,191.20 313.69,189.66 312.08,188.71 C304.44,184.19 297.05,195.43 303.65,201.55 C305.10,202.90 306.64,204.00 307.07,204.00 C307.50,204.00 308.53,205.35 309.35,207.00 C311.66,211.62 310.03,210.59 303.75,203.42 ZM 361.00 189.99 C361.00,188.42 365.80,182.29 367.55,181.62 C369.72,180.79 369.38,181.44 365.00,186.50 C362.80,189.04 361.00,190.61 361.00,189.99 ZM 371.82 177.44 C372.81,175.50 379.65,165.95 381.95,163.29 C383.64,161.35 383.16,157.16 381.00,155.00 C379.68,153.68 379.45,153.00 380.33,153.00 C382.41,153.00 386.00,157.39 386.00,159.93 C386.00,161.86 379.67,170.16 372.19,178.00 C370.94,179.31 370.90,179.24 371.82,177.44 Z" fill="rgba(83,164,95,1)"/>
</g>
</svg>